<svg>
    <symbol id="theme-dark" width="114" height="18" viewBox="0 0 114 18" fill="none" xmlns="http://www.w3.org/2000/svg">
        <path
          d="M3.19264 17.2938C1.36821 18.3477 0.0576172 17.4695 0.0576172 15.9074C0.0576172 14.2446 0.0576172 9.25511 0.0576172 9.25511C0.0576172 9.25511 0.0576172 4.26567 0.0576172 2.60279C0.0576172 1.04075 1.3674 0.162553 3.19264 1.21639C6.03415 2.85731 14.5579 7.7817 14.5579 7.7817C15.6912 8.43628 15.6912 10.0731 14.5579 10.7277C14.5579 10.7285 6.03415 15.6529 3.19264 17.2938Z"
          fill="#00C1FF"
        />
        <path
          d="M12.5745 17.2929C10.75 18.3467 9.43945 17.4685 9.43945 15.9064C9.43945 14.2436 9.43945 9.25413 9.43945 9.25413C9.43945 9.25413 9.43945 4.26469 9.43945 2.60182C9.43945 1.03977 10.7492 0.161576 12.5745 1.21541C15.3534 2.82055 23.6901 7.63679 23.6901 7.63679C24.9349 8.35561 24.9349 10.1527 23.6901 10.8715C23.6893 10.8715 15.3534 15.6877 12.5745 17.2929Z"
          fill="#BCEC30"
        />
        <mask id="mask0_1_42" style="mask-type:alpha" maskUnits="userSpaceOnUse" x="9" y="0" width="16" height="18">
          <path
            d="M12.5745 17.2929C10.75 18.3467 9.43945 17.4685 9.43945 15.9064C9.43945 14.2436 9.43945 9.25413 9.43945 9.25413C9.43945 9.25413 9.43945 4.26469 9.43945 2.60182C9.43945 1.03977 10.7492 0.161576 12.5745 1.21541C15.3534 2.82055 23.6901 7.63679 23.6901 7.63679C24.9349 8.35561 24.9349 10.1527 23.6901 10.8715C23.6893 10.8715 15.3534 15.6877 12.5745 17.2929Z"
            fill="#6FE4FF"
          />
        </mask>
        <g mask="url(#mask0_1_42)">
          <g filter="url(#filter0_f_1_42)">
            <path
              d="M3.19313 17.2938C1.3687 18.3477 0.0581055 17.4695 0.0581055 15.9074C0.0581055 14.2446 0.0581055 9.25511 0.0581055 9.25511C0.0581055 9.25511 0.0581055 4.26567 0.0581055 2.60279C0.0581055 1.04075 1.36789 0.162553 3.19313 1.21639C6.03464 2.85731 14.5584 7.7817 14.5584 7.7817C15.6917 8.43628 15.6917 10.0731 14.5584 10.7277C14.5584 10.7285 6.03464 15.6529 3.19313 17.2938Z"
              fill="#99D100"
            />
          </g>
        </g>
        <path d="M30.5687 12.2236L30.8865 11.4998C31.1032 11.0077 31.4933 10.8775 31.9845 11.2393C32.9235 11.9341 34.4693 12.4407 36.5352 12.4407C38.2977 12.4407 39.0489 11.992 39.0489 11.4564C39.0489 10.8485 38.4277 10.6893 37.402 10.559L35.0616 10.2551C32.2445 9.87873 30.8287 8.86554 30.8287 7.09968C30.8287 5.20356 32.3745 3.69824 35.9573 3.69824C37.9509 3.69824 39.2367 4.0022 40.0746 4.32063C40.9992 4.68249 41.1292 4.98645 41.1292 5.73911V6.72335C41.1292 7.33127 40.9125 7.53391 40.3202 7.53391H39.6556C39.0489 7.53391 38.8466 7.3168 38.8466 6.72335V6.40492C38.4566 6.27465 37.4886 6.08649 36.3618 6.08649C34.3826 6.08649 33.4291 6.44834 33.4291 7.05626C33.4291 7.50496 34.007 7.7655 35.0616 7.91024L37.3586 8.2142C40.1324 8.56158 41.6059 9.40108 41.6059 11.4275C41.6059 13.4828 39.6556 14.8 36.174 14.8C33.6169 14.8 31.5655 13.9894 30.7421 13.2367C30.4531 12.9473 30.4098 12.5854 30.5687 12.2236Z" fill="white"/>
        <path d="M55.9358 14.6264H54.7511C54.1733 14.6264 53.9855 14.5396 53.6965 14.1053L51.4718 10.8197C51.1539 10.371 50.9083 10.2552 50.2438 10.2552H48.019V13.8158C48.019 14.4238 47.8023 14.6264 47.21 14.6264H46.3577C45.7509 14.6264 45.5486 14.4093 45.5486 13.8158V3.13388H44.7541C44.1473 3.13388 43.9451 2.91677 43.9451 2.32333V1.59962C43.9451 0.991701 44.1618 0.789062 44.7541 0.789062H47.2245C47.8312 0.789062 48.0335 1.00618 48.0335 1.59962V7.85248H50.0271C50.6916 7.85248 50.9228 7.75116 51.2551 7.28798L53.1187 4.40761C53.4221 3.95891 53.6099 3.87207 54.1877 3.87207H55.3723C56.0224 3.87207 56.138 4.39314 55.7769 4.92869L53.6965 8.08406C53.4798 8.38802 53.2198 8.70645 52.9742 8.96699C53.2342 9.1841 53.5954 9.54596 53.7399 9.76307L56.3403 13.5987C56.7014 14.1053 56.5714 14.6264 55.9358 14.6264Z" fill="white"/>
        <path d="M60.1631 16.5951V15.8858C60.1631 15.2779 60.3798 15.0753 60.9721 15.0753H61.9978C62.6191 15.0753 62.9224 14.945 63.1536 14.4529L63.2836 14.1779L58.3717 4.87097C58.0684 4.30647 58.314 3.88672 58.9496 3.88672H60.062C60.6399 3.88672 60.8999 3.98804 61.1166 4.40779L63.168 8.63426C63.6448 9.60403 64.1793 10.7185 64.5982 11.6883C65.0316 10.7475 65.5228 9.66193 65.9851 8.7211L68.0799 4.40779C68.2677 4.00251 68.5566 3.88672 69.1345 3.88672H70.2469C70.897 3.88672 71.1281 4.32095 70.8247 4.87097L65.2339 15.5095C64.5838 16.7398 63.847 17.4201 62.1712 17.4201H60.9432C60.3654 17.4201 60.1631 17.203 60.1631 16.5951Z" fill="white"/>
        <path d="M85.9316 9.25634C85.9316 12.6723 83.4034 14.8 79.994 14.8C78.5205 14.8 77.3937 14.4381 76.5991 13.9894V16.9132C76.5991 17.5211 76.3824 17.7238 75.7901 17.7238H74.9377C74.331 17.7238 74.1287 17.5066 74.1287 16.9132V6.23123H73.3342C72.7274 6.23123 72.5251 6.01412 72.5251 5.42067V4.69696C72.5251 4.08905 72.7418 3.88641 73.3342 3.88641H75.4145C76.0212 3.88641 76.2235 4.10352 76.2235 4.69696V4.75486C77.0325 4.21931 78.2605 3.69824 79.994 3.69824C83.4034 3.71272 85.9316 5.84043 85.9316 9.25634ZM83.3601 9.25634C83.3601 7.2589 81.7565 6.14438 79.7629 6.14438C78.3327 6.14438 77.1625 6.7523 76.6135 7.24442V11.2827C77.177 11.7749 78.3327 12.3828 79.7629 12.3828C81.7565 12.3683 83.3601 11.2538 83.3601 9.25634Z" fill="white"/>
        <path d="M99.3909 8.41799C99.3909 9.0259 99.1742 9.22854 98.5818 9.22854H97.7295C97.1227 9.22854 96.9205 9.05485 96.9205 8.41799C96.9205 6.82582 96.3137 6.11659 94.8691 6.11659C93.4966 6.11659 92.3554 6.97056 91.7197 8.01271V13.8169C91.7197 14.4248 91.503 14.6274 90.9107 14.6274H90.0583C89.4516 14.6274 89.2493 14.4103 89.2493 13.8169V6.23238H88.4548C87.848 6.23238 87.6458 6.01527 87.6458 5.42182V4.69811C87.6458 4.0902 87.8625 3.88756 88.4548 3.88756H90.5351C91.1418 3.88756 91.3441 4.10467 91.3441 4.69811V5.39288C92.1098 4.5389 93.2799 3.71387 95.2736 3.71387C98.1918 3.71387 99.3909 5.45077 99.3909 8.41799Z" fill="white"/>
        <path d="M100.924 9.25749C100.924 6.07316 103.611 3.71387 107.179 3.71387C110.719 3.71387 113.391 6.07316 113.391 9.25749C113.391 12.4563 110.704 14.8156 107.179 14.8156C103.611 14.8156 100.924 12.4563 100.924 9.25749ZM110.936 9.25749C110.936 7.40479 109.303 6.05869 107.179 6.05869C105.012 6.05869 103.38 7.41927 103.38 9.25749C103.38 11.1247 105.012 12.4852 107.179 12.4852C109.318 12.4852 110.936 11.1247 110.936 9.25749Z" fill="white"/>
        <defs>
          <filter id="filter0_f_1_42" x="-8.87135" y="-8.17359" width="33.2092" height="34.857" filterUnits="userSpaceOnUse" colorInterpolationFilters="sRGB">
            <feFlood floodOpacity="0" result="BackgroundImageFix" />
            <feBlend mode="normal" in="SourceGraphic" in2="BackgroundImageFix" result="shape" />
            <feGaussianBlur stdDeviation="4.46473" result="effect1_foregroundBlur_1_42" />
          </filter>
        </defs>
    </symbol>
    <symbol id="theme-light" width="114" height="18" viewBox="0 0 114 18" fill="none" xmlns="http://www.w3.org/2000/svg">
        <path
          d="M3.19264 17.2938C1.36821 18.3477 0.0576172 17.4695 0.0576172 15.9074C0.0576172 14.2446 0.0576172 9.25511 0.0576172 9.25511C0.0576172 9.25511 0.0576172 4.26567 0.0576172 2.60279C0.0576172 1.04075 1.3674 0.162553 3.19264 1.21639C6.03415 2.85731 14.5579 7.7817 14.5579 7.7817C15.6912 8.43628 15.6912 10.0731 14.5579 10.7277C14.5579 10.7285 6.03415 15.6529 3.19264 17.2938Z"
          fill="#00C1FF"
        />
        <path
          d="M12.5745 17.2929C10.75 18.3467 9.43945 17.4685 9.43945 15.9064C9.43945 14.2436 9.43945 9.25413 9.43945 9.25413C9.43945 9.25413 9.43945 4.26469 9.43945 2.60182C9.43945 1.03977 10.7492 0.161576 12.5745 1.21541C15.3534 2.82055 23.6901 7.63679 23.6901 7.63679C24.9349 8.35561 24.9349 10.1527 23.6901 10.8715C23.6893 10.8715 15.3534 15.6877 12.5745 17.2929Z"
          fill="#BCEC30"
        />
        <mask id="mask0_1_42" style="mask-type:alpha" maskUnits="userSpaceOnUse" x="9" y="0" width="16" height="18">
          <path
            d="M12.5745 17.2929C10.75 18.3467 9.43945 17.4685 9.43945 15.9064C9.43945 14.2436 9.43945 9.25413 9.43945 9.25413C9.43945 9.25413 9.43945 4.26469 9.43945 2.60182C9.43945 1.03977 10.7492 0.161576 12.5745 1.21541C15.3534 2.82055 23.6901 7.63679 23.6901 7.63679C24.9349 8.35561 24.9349 10.1527 23.6901 10.8715C23.6893 10.8715 15.3534 15.6877 12.5745 17.2929Z"
            fill="#6FE4FF"
          />
        </mask>
        <g mask="url(#mask0_1_42)">
          <g filter="url(#filter0_f_1_42)">
            <path
              d="M3.19313 17.2938C1.3687 18.3477 0.0581055 17.4695 0.0581055 15.9074C0.0581055 14.2446 0.0581055 9.25511 0.0581055 9.25511C0.0581055 9.25511 0.0581055 4.26567 0.0581055 2.60279C0.0581055 1.04075 1.36789 0.162553 3.19313 1.21639C6.03464 2.85731 14.5584 7.7817 14.5584 7.7817C15.6917 8.43628 15.6917 10.0731 14.5584 10.7277C14.5584 10.7285 6.03464 15.6529 3.19313 17.2938Z"
              fill="#99D100"
            />
          </g>
        </g>
        <path d="M30.5687 12.2236L30.8865 11.4998C31.1032 11.0077 31.4933 10.8775 31.9845 11.2393C32.9235 11.9341 34.4693 12.4407 36.5352 12.4407C38.2977 12.4407 39.0489 11.992 39.0489 11.4564C39.0489 10.8485 38.4277 10.6893 37.402 10.559L35.0616 10.2551C32.2445 9.87873 30.8287 8.86554 30.8287 7.09968C30.8287 5.20356 32.3745 3.69824 35.9573 3.69824C37.9509 3.69824 39.2367 4.0022 40.0746 4.32063C40.9992 4.68249 41.1292 4.98645 41.1292 5.73911V6.72335C41.1292 7.33127 40.9125 7.53391 40.3202 7.53391H39.6556C39.0489 7.53391 38.8466 7.3168 38.8466 6.72335V6.40492C38.4566 6.27465 37.4886 6.08649 36.3618 6.08649C34.3826 6.08649 33.4291 6.44834 33.4291 7.05626C33.4291 7.50496 34.007 7.7655 35.0616 7.91024L37.3586 8.2142C40.1324 8.56158 41.6059 9.40108 41.6059 11.4275C41.6059 13.4828 39.6556 14.8 36.174 14.8C33.6169 14.8 31.5655 13.9894 30.7421 13.2367C30.4531 12.9473 30.4098 12.5854 30.5687 12.2236Z" fill="black"/>
        <path d="M55.9358 14.6264H54.7511C54.1733 14.6264 53.9855 14.5396 53.6965 14.1053L51.4718 10.8197C51.1539 10.371 50.9083 10.2552 50.2438 10.2552H48.019V13.8158C48.019 14.4238 47.8023 14.6264 47.21 14.6264H46.3577C45.7509 14.6264 45.5486 14.4093 45.5486 13.8158V3.13388H44.7541C44.1473 3.13388 43.9451 2.91677 43.9451 2.32333V1.59962C43.9451 0.991701 44.1618 0.789062 44.7541 0.789062H47.2245C47.8312 0.789062 48.0335 1.00618 48.0335 1.59962V7.85248H50.0271C50.6916 7.85248 50.9228 7.75116 51.2551 7.28798L53.1187 4.40761C53.4221 3.95891 53.6099 3.87207 54.1877 3.87207H55.3723C56.0224 3.87207 56.138 4.39314 55.7769 4.92869L53.6965 8.08406C53.4798 8.38802 53.2198 8.70645 52.9742 8.96699C53.2342 9.1841 53.5954 9.54596 53.7399 9.76307L56.3403 13.5987C56.7014 14.1053 56.5714 14.6264 55.9358 14.6264Z" fill="black"/>
        <path d="M60.1631 16.5951V15.8858C60.1631 15.2779 60.3798 15.0753 60.9721 15.0753H61.9978C62.6191 15.0753 62.9224 14.945 63.1536 14.4529L63.2836 14.1779L58.3717 4.87097C58.0684 4.30647 58.314 3.88672 58.9496 3.88672H60.062C60.6399 3.88672 60.8999 3.98804 61.1166 4.40779L63.168 8.63426C63.6448 9.60403 64.1793 10.7185 64.5982 11.6883C65.0316 10.7475 65.5228 9.66193 65.9851 8.7211L68.0799 4.40779C68.2677 4.00251 68.5566 3.88672 69.1345 3.88672H70.2469C70.897 3.88672 71.1281 4.32095 70.8247 4.87097L65.2339 15.5095C64.5838 16.7398 63.847 17.4201 62.1712 17.4201H60.9432C60.3654 17.4201 60.1631 17.203 60.1631 16.5951Z" fill="black"/>
        <path d="M85.9316 9.25634C85.9316 12.6723 83.4034 14.8 79.994 14.8C78.5205 14.8 77.3937 14.4381 76.5991 13.9894V16.9132C76.5991 17.5211 76.3824 17.7238 75.7901 17.7238H74.9377C74.331 17.7238 74.1287 17.5066 74.1287 16.9132V6.23123H73.3342C72.7274 6.23123 72.5251 6.01412 72.5251 5.42067V4.69696C72.5251 4.08905 72.7418 3.88641 73.3342 3.88641H75.4145C76.0212 3.88641 76.2235 4.10352 76.2235 4.69696V4.75486C77.0325 4.21931 78.2605 3.69824 79.994 3.69824C83.4034 3.71272 85.9316 5.84043 85.9316 9.25634ZM83.3601 9.25634C83.3601 7.2589 81.7565 6.14438 79.7629 6.14438C78.3327 6.14438 77.1625 6.7523 76.6135 7.24442V11.2827C77.177 11.7749 78.3327 12.3828 79.7629 12.3828C81.7565 12.3683 83.3601 11.2538 83.3601 9.25634Z" fill="black"/>
        <path d="M99.3909 8.41799C99.3909 9.0259 99.1742 9.22854 98.5818 9.22854H97.7295C97.1227 9.22854 96.9205 9.05485 96.9205 8.41799C96.9205 6.82582 96.3137 6.11659 94.8691 6.11659C93.4966 6.11659 92.3554 6.97056 91.7197 8.01271V13.8169C91.7197 14.4248 91.503 14.6274 90.9107 14.6274H90.0583C89.4516 14.6274 89.2493 14.4103 89.2493 13.8169V6.23238H88.4548C87.848 6.23238 87.6458 6.01527 87.6458 5.42182V4.69811C87.6458 4.0902 87.8625 3.88756 88.4548 3.88756H90.5351C91.1418 3.88756 91.3441 4.10467 91.3441 4.69811V5.39288C92.1098 4.5389 93.2799 3.71387 95.2736 3.71387C98.1918 3.71387 99.3909 5.45077 99.3909 8.41799Z" fill="black"/>
        <path d="M100.924 9.25749C100.924 6.07316 103.611 3.71387 107.179 3.71387C110.719 3.71387 113.391 6.07316 113.391 9.25749C113.391 12.4563 110.704 14.8156 107.179 14.8156C103.611 14.8156 100.924 12.4563 100.924 9.25749ZM110.936 9.25749C110.936 7.40479 109.303 6.05869 107.179 6.05869C105.012 6.05869 103.38 7.41927 103.38 9.25749C103.38 11.1247 105.012 12.4852 107.179 12.4852C109.318 12.4852 110.936 11.1247 110.936 9.25749Z" fill="black"/>
        <defs>
          <filter id="filter0_f_1_42" x="-8.87135" y="-8.17359" width="33.2092" height="34.857" filterUnits="userSpaceOnUse" colorInterpolationFilters="sRGB">
            <feFlood floodOpacity="0" result="BackgroundImageFix" />
            <feBlend mode="normal" in="SourceGraphic" in2="BackgroundImageFix" result="shape" />
            <feGaussianBlur stdDeviation="4.46473" result="effect1_foregroundBlur_1_42" />
          </filter>
        </defs>
    </symbol>
</svg>